<?xml version="1.0" encoding="utf-8"?>
<!-- Generator: Adobe Illustrator 22.1.0, SVG Export Plug-In . SVG Version: 6.00 Build 0)  -->
<svg version="1.1" id="Layer_1" xmlns="http://www.w3.org/2000/svg" xmlns:xlink="http://www.w3.org/1999/xlink" x="0px" y="0px"
	 viewBox="0 0 65 65" style="enable-background:new 0 0 65 65;" xml:space="preserve">
<style type="text/css">
	.st0{fill:#FFFFFF;}
	.st1{clip-path:url(#SVGID_2_);}
	.st2{opacity:0.3;}
	.st3{opacity:0.6;}
	.st4{fill:#F2E70A;}
</style>
<g>
	<g>
		<path id="SVGID_5_" class="st0" d="M-900-111.9h-32.3c-2.2,0-4,1.8-4,4v36.3l8.1-8.1h28.2c2.2,0,4-1.8,4-4v-24.2
			C-895.9-110.1-897.8-111.9-900-111.9z"/>
	</g>
	<g>
		<defs>
			<path id="SVGID_1_" d="M-900-111.9h-32.3c-2.2,0-4,1.8-4,4v36.3l8.1-8.1h28.2c2.2,0,4-1.8,4-4v-24.2
				C-895.9-110.1-897.8-111.9-900-111.9z"/>
		</defs>
		<clipPath id="SVGID_2_">
			<use xlink:href="#SVGID_1_"  style="overflow:visible;"/>
		</clipPath>
		<g class="st1">
			<g>
				<rect id="SVGID_7_" x="-1187.8" y="-2199.5" class="st0" width="1750" height="3678"/>
			</g>
		</g>
	</g>
</g>
<g>
	<g>
		<defs>
			<polygon id="SVGID_3_" points="-913.7,-107.1 -910.9,-104.3 -916.7,-98.1 -921.5,-103.1 -930.3,-93.8 -928.6,-92 -921.5,-99.6 
				-916.7,-94.5 -909.3,-102.5 -906.5,-99.6 -906.5,-107.1 			"/>
		</defs>
		<clipPath id="SVGID_4_">
			<use xlink:href="#SVGID_3_"  style="overflow:visible;"/>
		</clipPath>
	</g>
</g>
<g>
	<g class="st2">
		<g>
			<path class="st0" d="M13,26.4c-8.9,8.9-8.9,23.4,0,32.3l6.5-6.5C12.4,45.2,10,35.3,13,26.4z"/>
		</g>
		<g>
			<path class="st0" d="M13,26.3c8.9-2.9,18.8-0.6,25.8,6.5l6.5-6.5C36.4,17.5,21.9,17.4,13,26.3z"/>
		</g>
	</g>
	<g class="st3">
		<polygon class="st0" points="27.5,44.3 30.3,41.4 43,54.1 40.2,56.9 		"/>
	</g>
	<g class="st3">
		<g>
			<path class="st0" d="M10.6,57.4l-0.3-0.3c-9-9-9.1-23.8,0-32.8l1.1-1.1l-0.5,1.5c-2.9,8.8-0.5,18.6,6.4,25.4l0.3,0.3L10.6,57.4z
				 M9.7,26c-7.6,8.7-7.3,21.9,0.9,30.3l5.9-5.9C10,43.7,7.5,34.5,9.7,26z"/>
		</g>
		<g>
			<path class="st0" d="M20.3,47.7L20,47.4c-7-7-10.7-15.8-9.8-22.9v-0.1l0.2-0.2h0.2c7.2-0.9,16,2.9,22.9,9.8l0.3,0.3L20.3,47.7z
				 M10.9,24.9c-0.7,6.8,2.8,15.1,9.4,21.8l12.4-12.4C26,27.7,17.7,24.1,10.9,24.9z"/>
		</g>
		<g>
			<path class="st0" d="M36.4,31.5l-0.3-0.3c-6.9-6.9-16.6-9.3-25.4-6.4l-1.5,0.5l1.1-1.1c9-9,23.8-9,32.8,0l0.3,0.3L36.4,31.5z
				 M18.2,22.9c6.6,0,13.1,2.6,18.2,7.6l5.9-5.9C34,16.4,20.7,16.1,12,23.7C14.1,23.2,16.2,22.9,18.2,22.9z"/>
		</g>
	</g>
	<g class="st3">
		<ellipse class="st4" cx="55" cy="13.6" rx="6.1" ry="6.1"/>
	</g>
	<g>
		<path class="st4" d="M52.7,18.9c-1.7,0-3.4-0.7-4.6-1.9c-1.2-1.2-1.9-2.9-1.9-4.6s0.7-3.4,1.9-4.6s2.9-1.9,4.6-1.9
			c1.7,0,3.4,0.7,4.6,1.9l0,0l0,0c1.2,1.2,1.9,2.9,1.9,4.6s-0.7,3.4-1.9,4.6S54.5,18.9,52.7,18.9z M52.7,6.7c-1.5,0-3,0.6-4.1,1.7
			s-1.7,2.5-1.7,4.1c0,1.5,0.6,3,1.7,4.1c1.1,1.1,2.5,1.7,4.1,1.7c1.5,0,3-0.6,4.1-1.7s1.7-2.5,1.7-4.1c0-1.5-0.6-3-1.7-4.1l0,0
			C55.7,7.3,54.3,6.7,52.7,6.7z"/>
	</g>
</g>
</svg>
