<?xml version="1.0" encoding="utf-8"?>
<!-- Generator: Adobe Illustrator 22.1.0, SVG Export Plug-In . SVG Version: 6.00 Build 0)  -->
<svg version="1.1" id="Layer_1" xmlns="http://www.w3.org/2000/svg" xmlns:xlink="http://www.w3.org/1999/xlink" x="0px" y="0px"
	 viewBox="0 0 65 65" style="enable-background:new 0 0 65 65;" xml:space="preserve">
<style type="text/css">
	.st0{fill:#FFFFFF;}
	.st1{clip-path:url(#SVGID_2_);}
	.st2{opacity:0.3;}
	.st3{opacity:0.6;}
	.st4{fill:#F2E70A;}
</style>
<g>
	<g>
		<path id="SVGID_5_" class="st0" d="M-968.7-111.9h-32.3c-2.2,0-4,1.8-4,4v36.3l8.1-8.1h28.2c2.2,0,4-1.8,4-4v-24.2
			C-964.7-110.1-966.5-111.9-968.7-111.9z"/>
	</g>
	<g>
		<defs>
			<path id="SVGID_1_" d="M-968.7-111.9h-32.3c-2.2,0-4,1.8-4,4v36.3l8.1-8.1h28.2c2.2,0,4-1.8,4-4v-24.2
				C-964.7-110.1-966.5-111.9-968.7-111.9z"/>
		</defs>
		<clipPath id="SVGID_2_">
			<use xlink:href="#SVGID_1_"  style="overflow:visible;"/>
		</clipPath>
		<g class="st1">
			<g>
				<rect id="SVGID_7_" x="-1256.6" y="-2199.5" class="st0" width="1750" height="3678"/>
			</g>
		</g>
	</g>
</g>
<g>
	<g>
		<defs>
			<polygon id="SVGID_3_" points="-982.4,-107.1 -979.7,-104.3 -985.5,-98.1 -990.2,-103.1 -999,-93.8 -997.4,-92 -990.2,-99.6 
				-985.5,-94.5 -978,-102.5 -975.3,-99.6 -975.3,-107.1 			"/>
		</defs>
		<clipPath id="SVGID_4_">
			<use xlink:href="#SVGID_3_"  style="overflow:visible;"/>
		</clipPath>
	</g>
</g>
<g>
	<g class="st2">
		<path class="st0" d="M45.3,56.9h-4.6c-0.4,0-0.7-0.3-0.7-0.8V22c0-0.4,0.3-0.8,0.7-0.8h4.6c0.4,0,0.8,0.3,0.8,0.8v34.2
			C46,56.6,45.7,56.9,45.3,56.9z"/>
	</g>
	<g class="st2">
		<path class="st0" d="M20.1,56.9h-4.6c-0.4,0-0.7-0.3-0.7-0.8V22c0-0.4,0.3-0.8,0.7-0.8h4.6c0.4,0,0.7,0.3,0.7,0.8v34.2
			C20.8,56.6,20.5,56.9,20.1,56.9z"/>
	</g>
	<g class="st3">
		<path class="st0" d="M12.1,50.6H9.3c-0.6,0-1.1-0.5-1.1-1.1V20.7c0-0.6,0.5-1.1,1.1-1.1h2.8c0.6,0,1.1,0.5,1.1,1.1v28.7
			C13.2,50.1,12.7,50.6,12.1,50.6z M9.3,20.3c-0.2,0-0.4,0.2-0.4,0.4v28.7c0,0.2,0.2,0.4,0.4,0.4h2.8c0.2,0,0.4-0.2,0.4-0.4V20.7
			c0-0.2-0.2-0.4-0.4-0.4C12.1,20.3,9.3,20.3,9.3,20.3z"/>
	</g>
	<g class="st3">
		<path class="st0" d="M18.6,54.3H14c-0.6,0-1.1-0.5-1.1-1.1V18.9c0-0.6,0.5-1.1,1.1-1.1h4.6c0.6,0,1.1,0.5,1.1,1.1v34.2
			C19.7,53.8,19.2,54.3,18.6,54.3z M14,18.6c-0.2,0-0.4,0.2-0.4,0.4v34.2c0,0.2,0.2,0.4,0.4,0.4h4.6c0.2,0,0.4-0.2,0.4-0.4V18.9
			c0-0.2-0.2-0.4-0.4-0.4H14V18.6z"/>
	</g>
	<g class="st3">
		<rect x="19.9" y="33.6" class="st0" width="16.8" height="5.1"/>
	</g>
	<g class="st3">
		<path class="st0" d="M7.8,33.6H4.1c-0.8,0-1.4,0.6-1.4,1.4v2.3c0,0.8,0.6,1.4,1.4,1.4h3.7V33.6z"/>
	</g>
	<g>
		<g>
			<path class="st4" d="M54.1,11.4c-0.2-0.1-0.2-0.2-0.2-0.4c0-0.1,0-0.2,0-0.2l0.3-0.8c0.1-0.2,0.2-0.2,0.4-0.2
				c0.1,0,0.1,0,0.2,0.1l2.7,1l-0.2-2.4V8.4c0-0.1,0-0.2,0.1-0.3C57.5,8,57.6,8,57.7,8h1c0.1,0,0.2,0,0.3,0.1
				c0.1,0.1,0.1,0.2,0.1,0.3l-0.2,2.4l2.6-1c0.1,0,0.2-0.1,0.3-0.1c0.2,0,0.3,0.1,0.3,0.2l0.3,0.8c0,0.1,0.1,0.2,0.1,0.2
				c0,0.2-0.1,0.3-0.3,0.3l-4,1.2L54.1,11.4z M57.3,17.4c-0.1-0.1-0.1-0.2-0.1-0.3l0.2-2.4l-2.7,1c-0.1,0-0.2,0.1-0.2,0.1
				c-0.1,0-0.3-0.1-0.3-0.2l-0.3-0.8c0-0.1,0-0.1,0-0.2c0-0.2,0.1-0.3,0.2-0.4l4-1.1l4,1.2c0.2,0.1,0.3,0.2,0.3,0.3
				c0,0,0,0.1-0.1,0.2L62,15.6c-0.1,0.1-0.2,0.2-0.3,0.2s-0.2,0-0.3-0.1l-2.6-1l0.2,2.4v0.1c0,0.1,0,0.2-0.1,0.3
				c-0.1,0.1-0.2,0.1-0.3,0.1h-1C57.5,17.5,57.4,17.5,57.3,17.4z"/>
		</g>
	</g>
	<g class="st3">
		<path class="st0" d="M49,52.5h-2.8c-0.6,0-1.1-0.5-1.1-1.1V22.6c0-0.6,0.5-1.1,1.1-1.1H49c0.6,0,1.1,0.5,1.1,1.1v28.7
			C50.1,52,49.6,52.5,49,52.5z M46.2,22.2c-0.2,0-0.4,0.2-0.4,0.4v28.7c0,0.2,0.2,0.4,0.4,0.4H49c0.2,0,0.4-0.2,0.4-0.4V22.6
			c0-0.2-0.2-0.4-0.4-0.4H46.2z"/>
	</g>
	<g class="st3">
		<path class="st0" d="M44.2,54.3h-4.6c-0.6,0-1.1-0.5-1.1-1.1V18.9c0-0.6,0.5-1.1,1.1-1.1h4.6c0.6,0,1.1,0.5,1.1,1.1v34.2
			C45.4,53.8,44.9,54.3,44.2,54.3z M39.6,18.6c-0.2,0-0.4,0.2-0.4,0.4v34.2c0,0.2,0.2,0.4,0.4,0.4h4.6c0.2,0,0.4-0.2,0.4-0.4V18.9
			c0-0.2-0.2-0.4-0.4-0.4h-4.6V18.6z"/>
	</g>
	<g class="st3">
		<path class="st0" d="M50.5,38.7h3.7c0.8,0,1.4-0.6,1.4-1.4V35c0-0.8-0.6-1.4-1.4-1.4h-3.7V38.7z"/>
	</g>
</g>
</svg>
