<?xml version="1.0" encoding="utf-8"?>
<!-- Generator: Adobe Illustrator 22.1.0, SVG Export Plug-In . SVG Version: 6.00 Build 0)  -->
<svg version="1.1" id="Layer_1" xmlns="http://www.w3.org/2000/svg" xmlns:xlink="http://www.w3.org/1999/xlink" x="0px" y="0px"
	 viewBox="0 0 65 65" style="enable-background:new 0 0 65 65;" xml:space="preserve">
<style type="text/css">
	.st0{fill:#FFFFFF;}
	.st1{clip-path:url(#SVGID_2_);}
	.st2{opacity:0.3;enable-background:new    ;}
	.st3{fill:#F2E70A;}
</style>
<g>
	<g>
		<path id="SVGID_5_" class="st0" d="M-1038.1-111.9h-32.3c-2.2,0-4,1.8-4,4v36.3l8.1-8.1h28.2c2.2,0,4-1.8,4-4v-24.2
			C-1034.1-110.1-1035.9-111.9-1038.1-111.9z"/>
	</g>
	<g>
		<defs>
			<path id="SVGID_1_" d="M-1038.1-111.9h-32.3c-2.2,0-4,1.8-4,4v36.3l8.1-8.1h28.2c2.2,0,4-1.8,4-4v-24.2
				C-1034.1-110.1-1035.9-111.9-1038.1-111.9z"/>
		</defs>
		<clipPath id="SVGID_2_">
			<use xlink:href="#SVGID_1_"  style="overflow:visible;"/>
		</clipPath>
		<g class="st1">
			<g>
				<rect id="SVGID_7_" x="-1326" y="-2199.5" class="st0" width="1750" height="3678"/>
			</g>
		</g>
	</g>
</g>
<g>
	<g>
		<defs>
			<polygon id="SVGID_3_" points="-1051.8,-107.1 -1049.1,-104.3 -1054.9,-98.1 -1059.7,-103.1 -1068.5,-93.8 -1066.8,-92 
				-1059.7,-99.6 -1054.9,-94.5 -1047.4,-102.5 -1044.7,-99.6 -1044.7,-107.1 			"/>
		</defs>
		<clipPath id="SVGID_4_">
			<use xlink:href="#SVGID_3_"  style="overflow:visible;"/>
		</clipPath>
	</g>
</g>
<g id="_Group__2_">
	<g id="_Path__2_" class="st2">
		<path class="st0" d="M28.6,38.3L24,58.4l2.7-0.5c0.9-0.2,1.8-0.7,2.2-1.6l10.3-17.9L28.6,38.3z"/>
	</g>
	<g id="_Path_2_2_" class="st2">
		<path class="st0" d="M28.6,26.7L24,6.6l2.7,0.5c0.9,0.2,1.8,0.7,2.2,1.6l10.3,17.9L28.6,26.7z"/>
	</g>
	<g id="_Path_3_2_">
		<path class="st0" d="M5.9,41.3l1.9-6.4l0.7,0.2L7,40.4l1-0.2c1.9-0.3,3.5-1.7,3.9-3.6l0.1-0.3h5.2c0,0,0,0,0.1,0
			c2.8,0,5.7,0.3,8.5,0.8c2.7,0.5,5.5,0.8,8.3,0.8l0,0h18.3c3,0.1,5.6-2.2,5.8-5.2S56,27.1,53,26.9c-0.2,0-0.4,0-0.6,0H34.1
			c-2.8,0-5.6,0.3-8.4,0.8c-2.8,0.6-5.6,0.8-8.5,0.8c0,0,0,0-0.1,0H12v-0.1c-0.5-1.9-2-3.3-3.9-3.6l-1-0.2l1.5,5.3l-0.7,0.2L6,23.7
			L8.2,24c2.1,0.4,3.8,1.9,4.5,3.9h4.6c0,0,0,0,0.1,0c2.8,0,5.6-0.3,8.3-0.8c2.8-0.6,5.7-0.8,8.5-0.8h18.3c0.2,0,0.4,0,0.6,0
			c3.4,0.2,6.1,3.1,5.9,6.5c-0.2,3.4-3.1,6.1-6.5,5.9H34.2l0,0c-2.8,0-5.7-0.3-8.5-0.8C22.8,37.3,20,37,17.3,37c0,0,0,0-0.1,0h-4.6
			c-0.6,2-2.3,3.5-4.5,3.9L5.9,41.3z"/>
	</g>
	<g id="_Path_4_2_">
		<rect x="6.5" y="32.1" class="st0" width="6.7" height="0.8"/>
	</g>
	<g id="_Path_5_2_">
		<path class="st0" d="M53.5,35.2l-0.6-0.4c1-1.3,1-3.2,0-4.6l0.6-0.4C54.7,31.4,54.7,33.6,53.5,35.2z"/>
	</g>
	<g id="_Path_6_2_">
		<path class="st0" d="M26.9,58.9l4.8-20.7l0.7,0.2l-4.5,19.5l2.1-0.4c0.8-0.2,1.6-0.7,2-1.4l10.3-17.9l0.7,0.4L32.6,56.5
			c-0.5,0.9-1.5,1.6-2.5,1.7L26.9,58.9z"/>
	</g>
	<g id="_Path_7_2_">
		<path class="st0" d="M42.3,26.8L31.9,8.9c-0.4-0.7-1.2-1.2-2-1.4l-2.1-0.4l4.5,19.5l-0.7,0.2L26.9,6.1l3.2,0.6
			c1,0.2,1.9,0.8,2.5,1.7l10.3,17.9L42.3,26.8z"/>
	</g>
	<g id="_Path_8_2_">
		<path class="st0" d="M42.4,20.3h-3.6v-0.8h3.6c0.3,0,0.5-0.2,0.5-0.5v-3.3c0-0.3-0.2-0.5-0.5-0.5h-6.5v-0.8h6.5
			c0.7,0,1.2,0.5,1.2,1.2v3.3C43.6,19.8,43,20.3,42.4,20.3z"/>
	</g>
	<g id="_Path_9_2_">
		<path class="st0" d="M42.4,50.4h-6.5v-0.8h6.5c0.3,0,0.5-0.2,0.5-0.5v-3.3c0-0.3-0.2-0.5-0.5-0.5h-3.6v-0.8h3.6
			c0.7,0,1.2,0.5,1.2,1.2V49C43.6,49.9,43,50.4,42.4,50.4z"/>
	</g>
	<g id="_Path_10_2_">
		<path class="st3" d="M26.5,18.8c-0.9,0-1.3-0.6-1.6-1c-0.3-0.5-0.6-0.7-1.1-0.7s-0.8,0.3-1.1,0.7c-0.4,0.4-0.8,1-1.7,1
			c-0.9,0-1.3-0.5-1.7-1C19,17.3,18.7,17,18.2,17v-0.8c0.9,0,1.3,0.5,1.7,1c0.4,0.4,0.6,0.7,1.1,0.7s0.7-0.3,1.1-0.7
			c0.4-0.4,0.8-1,1.7-1c0.9,0,1.3,0.6,1.7,1c0.3,0.5,0.6,0.7,1,0.7C26.5,17.9,26.5,18.8,26.5,18.8z"/>
	</g>
	<g id="_Path_11_2_">
		<path class="st3" d="M23.8,48.7c-0.9,0-1.3-0.5-1.7-1C21.7,47.3,21.5,47,21,47s-0.7,0.3-1.1,0.7s-0.8,1-1.7,1V48
			c0.5,0,0.7-0.3,1.1-0.7s0.8-1,1.7-1c0.9,0,1.3,0.5,1.7,1c0.4,0.4,0.6,0.7,1.1,0.7s0.7-0.3,1.1-0.7c0.3-0.5,0.8-1,1.6-1V47
			c-0.5,0-0.7,0.3-1,0.7C25.1,48.2,24.7,48.7,23.8,48.7z"/>
	</g>
	<g id="_Path_12_2_">
		<path class="st3" d="M21.5,14.5c-0.9,0-1.3-0.5-1.7-1c-0.4-0.4-0.6-0.7-1.1-0.7s-0.8,0.3-1.1,0.7c-0.4,0.4-0.8,1-1.7,1
			c-0.9,0-1.3-0.5-1.7-1c-0.4-0.4-0.6-0.7-1.1-0.7V12c0.9,0,1.3,0.5,1.7,1c0.4,0.4,0.6,0.7,1.1,0.7c0.5,0,0.7-0.3,1.1-0.7
			s0.8-1,1.7-1c0.9,0,1.3,0.5,1.7,1c0.4,0.4,0.6,0.7,1.1,0.7V14.5z"/>
	</g>
	<g id="_Path_13_2_">
		<path class="st3" d="M17.9,52.9c-0.9,0-1.3-0.5-1.7-1c-0.4-0.4-0.6-0.7-1.1-0.7s-0.7,0.3-1.1,0.7c-0.4,0.4-0.8,1-1.7,1v-0.8
			c0.5,0,0.7-0.3,1.1-0.7c0.4-0.4,0.8-1,1.7-1s1.3,0.5,1.7,1c0.4,0.4,0.6,0.7,1.1,0.7s0.7-0.3,1.1-0.7s0.8-1,1.7-1v0.8
			c-0.5,0-0.7,0.3-1.1,0.7C19.2,52.4,18.8,52.9,17.9,52.9z"/>
	</g>
	<g>
		<g id="_Path_14_2_">
			<path class="st0" d="M46.5,35.4L46.5,35.4c-0.1,0-0.2,0-0.2-0.1l-0.1-0.1v-0.1c0-0.1,0-0.2,0.1-0.3s0.3-0.1,0.4-0.1
				c0,0,0.1,0,0.1,0.1c0.1,0.1,0.1,0.2,0.1,0.3v0.1c0,0.1-0.1,0.1-0.1,0.1l-0.1,0.1C46.6,35.4,46.6,35.4,46.5,35.4z"/>
		</g>
		<g>
			<g id="_Path_15_2_">
				<path class="st0" d="M43.2,35.4L43.2,35.4c-0.1,0-0.2,0-0.2-0.1l-0.1-0.1v-0.1c0-0.1,0-0.2,0.1-0.3l0.1-0.1
					c0.1-0.1,0.3,0,0.4,0.1c0.1,0.1,0.1,0.2,0.1,0.3v0.1c0,0.1,0,0.1-0.1,0.1l-0.1,0.1C43.3,35.4,43.3,35.4,43.2,35.4z"/>
			</g>
			<g id="_Path_16_2_">
				<path class="st0" d="M39.9,35.4c-0.1,0-0.2,0-0.3-0.1l-0.1-0.1v-0.1c0-0.1,0-0.2,0.1-0.3l0.1-0.1c0.1,0,0.2,0,0.3,0
					c0,0,0.1,0,0.1,0.1c0.1,0.1,0.1,0.2,0.1,0.3v0.1c0,0.1,0,0.1-0.1,0.1L39.9,35.4L39.9,35.4z"/>
			</g>
			<g id="_Path_17_2_">
				<path class="st0" d="M36.5,35.4c-0.1,0-0.2,0-0.3-0.1s-0.1-0.2-0.1-0.3s0-0.2,0.1-0.3s0.3-0.1,0.4-0.1c0,0,0.1,0,0.1,0.1
					c0.1,0.1,0.1,0.2,0.1,0.3s0,0.2-0.1,0.3C36.7,35.3,36.6,35.4,36.5,35.4z"/>
			</g>
			<g id="_Path_18_2_">
				<path class="st0" d="M46.5,30.4L46.5,30.4c-0.1,0-0.2,0-0.2-0.1l-0.1-0.1v-0.1c0-0.1,0-0.2,0.1-0.3c0.1-0.1,0.3-0.1,0.4-0.1
					c0,0,0.1,0,0.1,0.1c0.1,0.1,0.1,0.2,0.1,0.3v0.1c0,0,0,0.1-0.1,0.1l-0.1,0.1C46.6,30.4,46.6,30.4,46.5,30.4z"/>
			</g>
			<g id="_Path_19_2_">
				<path class="st0" d="M43.2,30.4L43.2,30.4c-0.1,0-0.2,0-0.2-0.1c-0.1-0.1-0.1-0.2-0.1-0.3c0-0.1,0-0.1,0-0.1s0-0.1,0.1-0.1
					l0.1-0.1c0.1-0.1,0.3,0,0.4,0.1l0.1,0.1V30c0,0.1,0,0.2-0.1,0.3l-0.1,0.1C43.3,30.4,43.3,30.4,43.2,30.4z"/>
			</g>
			<g id="_Path_20_2_">
				<path class="st0" d="M39.9,30.4c-0.1,0-0.2,0-0.3-0.1s-0.1-0.2-0.1-0.3c0-0.1,0-0.2,0.1-0.3l0.1-0.1c0.1,0,0.2,0,0.3,0
					c0,0,0.1,0,0.1,0.1c0.1,0.1,0.1,0.2,0.1,0.3c0,0.1,0,0.2-0.1,0.3L39.9,30.4L39.9,30.4z"/>
			</g>
			<g id="_Path_21_2_">
				<path class="st0" d="M36.5,30.4c-0.1,0-0.2,0-0.3-0.1l-0.1-0.1v-0.1c0-0.1,0-0.2,0.1-0.3c0.1-0.1,0.3-0.1,0.4-0.1
					c0,0,0.1,0,0.1,0.1c0.1,0.1,0.1,0.2,0.1,0.3v0.1c0,0,0,0.1-0.1,0.1C36.7,30.3,36.6,30.4,36.5,30.4z"/>
			</g>
		</g>
	</g>
</g>
</svg>
