<?xml version="1.0" encoding="utf-8"?>
<!-- Generator: Adobe Illustrator 22.1.0, SVG Export Plug-In . SVG Version: 6.00 Build 0)  -->
<svg version="1.1" id="Layer_1" xmlns="http://www.w3.org/2000/svg" xmlns:xlink="http://www.w3.org/1999/xlink" x="0px" y="0px"
	 viewBox="0 0 65 65" style="enable-background:new 0 0 65 65;" xml:space="preserve">
<style type="text/css">
	.st0{fill:#FFFFFF;}
	.st1{clip-path:url(#SVGID_2_);}
	.st2{opacity:0.3;}
	.st3{opacity:0.6;}
	.st4{fill:#0095FF;}
	.st5{fill:#F2E70A;}
</style>
<g>
	<g>
		<path id="SVGID_5_" class="st0" d="M-826.5-111.9h-32.3c-2.2,0-4,1.8-4,4v36.3l8.1-8.1h28.2c2.2,0,4-1.8,4-4v-24.2
			C-822.5-110.1-824.3-111.9-826.5-111.9z"/>
	</g>
	<g>
		<defs>
			<path id="SVGID_1_" d="M-826.5-111.9h-32.3c-2.2,0-4,1.8-4,4v36.3l8.1-8.1h28.2c2.2,0,4-1.8,4-4v-24.2
				C-822.5-110.1-824.3-111.9-826.5-111.9z"/>
		</defs>
		<clipPath id="SVGID_2_">
			<use xlink:href="#SVGID_1_"  style="overflow:visible;"/>
		</clipPath>
		<g class="st1">
			<g>
				<rect id="SVGID_7_" x="-1114.4" y="-2199.5" class="st0" width="1750" height="3678"/>
			</g>
		</g>
	</g>
</g>
<g>
	<g>
		<defs>
			<polygon id="SVGID_3_" points="-840.2,-107.1 -837.5,-104.3 -843.3,-98.1 -848.1,-103.1 -856.9,-93.8 -855.2,-92 -848.1,-99.6 
				-843.3,-94.5 -835.8,-102.5 -833.1,-99.6 -833.1,-107.1 			"/>
		</defs>
		<clipPath id="SVGID_4_">
			<use xlink:href="#SVGID_3_"  style="overflow:visible;"/>
		</clipPath>
	</g>
</g>
<g>
	<g>
		<g class="st2">
			<path class="st0" d="M36.2,54.8H6.4c0-2.5-2-4.5-4.5-4.5V16.8c2.5,0,4.5-2,4.5-4.5h47c0,2.5,2,4.5,4.5,4.5v33.6
				c-2.5,0-4.5,2-4.5,4.5h-2.9L36.2,54.8L36.2,54.8z"/>
		</g>
		<g class="st3">
			<path class="st0" d="M56.8,52.2H9.1v-0.4c0-2.3-1.8-4.1-4.1-4.1H4.6V13.4H5c2.3,0,4.1-1.8,4.1-4.1V8.9h47.7v0.4
				c0,2.3,1.8,4.1,4.1,4.1h0.4v34.3h-0.4c-2.3,0-4.1,1.8-4.1,4.1C56.8,51.8,56.8,52.2,56.8,52.2z M9.8,51.4h46.3
				c0.2-2.4,2.1-4.3,4.5-4.5V14.2c-2.4-0.2-4.3-2.1-4.5-4.5H9.8c-0.2,2.4-2.1,4.3-4.5,4.5V47C7.7,47.2,9.6,49.1,9.8,51.4z"/>
		</g>
		<g>
			<g>
				<path class="st4" d="M57.8,39.9c2.1-0.5,3.2,0.3,3.4,2.4c2,0.8,2.4,2.1,1.3,4c1.1,1.8,0.7,3.1-1.3,4c-0.2,2.1-1.3,3-3.4,2.4
					c-1.4,1.6-2.8,1.6-4.2,0c-2.1,0.5-3.2-0.3-3.4-2.4c-2-0.8-2.4-2.1-1.3-4c-1.1-1.8-0.7-3.1,1.3-4c0.2-2.1,1.3-3,3.4-2.4
					C55,38.3,56.4,38.3,57.8,39.9z"/>
			</g>
			<g>
				<path class="st5" d="M60.3,61.5l-4.6-3.7l-4.6,3.7V52l0.5,0.3c0.5,0.2,1.1,0.3,1.9,0.1l0.2-0.1l0.2,0.2c1.2,1.5,2.4,1.5,3.6,0
					l0.2-0.2l0.2,0.1c0.8,0.2,1.4,0.2,1.9-0.1l0.5-0.3C60.3,52,60.3,61.5,60.3,61.5z M55.7,56.9l3.9,3.1v-6.8c-0.5,0.1-1,0.1-1.6,0
					c-1.4,1.6-3,1.6-4.4,0c-0.6,0.1-1.2,0.1-1.6,0V60L55.7,56.9z"/>
			</g>
			<g>
				<path class="st5" d="M55.7,54.3c-0.8,0-1.5-0.4-2.2-1.2c-1,0.2-1.9,0.1-2.5-0.3c-0.6-0.4-1-1.2-1.1-2.3c-1-0.4-1.6-1-1.8-1.7
					s-0.1-1.5,0.4-2.5c-0.5-0.9-0.7-1.8-0.4-2.5c0.2-0.7,0.8-1.3,1.8-1.7c0.1-1.1,0.5-1.8,1.1-2.3c0.6-0.4,1.4-0.6,2.5-0.3
					c1.4-1.6,3-1.6,4.4,0c1-0.2,1.9-0.1,2.5,0.3c0.6,0.4,1,1.2,1.1,2.3c1,0.4,1.6,1,1.8,1.7s0.1,1.5-0.4,2.5
					c0.5,0.9,0.7,1.8,0.4,2.5c-0.2,0.7-0.8,1.3-1.8,1.7c-0.1,1.1-0.5,1.8-1.1,2.3c-0.6,0.4-1.4,0.6-2.5,0.3
					C57.2,53.9,56.5,54.3,55.7,54.3z M53.8,52.3l0.2,0.2c1.2,1.5,2.4,1.5,3.6,0l0.2-0.2l0.2,0.1c0.9,0.2,1.6,0.2,2.1-0.2
					c0.5-0.3,0.7-1,0.8-1.9v-0.2l0.2-0.1c0.9-0.4,1.4-0.8,1.6-1.4c0.2-0.5,0-1.2-0.5-2L62,46.3l0.1-0.2c0.5-0.8,0.7-1.5,0.5-2
					s-0.7-1-1.6-1.4l-0.2-0.1v-0.2c-0.1-0.9-0.3-1.6-0.8-1.9c-0.5-0.3-1.2-0.4-2.1-0.2l-0.2,0.1l-0.2-0.2c-1.2-1.5-2.4-1.5-3.6,0
					l-0.2,0.2l-0.2-0.1c-0.9-0.2-1.6-0.2-2.1,0.2c-0.5,0.3-0.7,1-0.8,1.9v0.2l-0.2,0.1c-0.9,0.4-1.4,0.8-1.6,1.4
					c-0.2,0.5,0,1.2,0.5,2l0.1,0.2l-0.1,0.2c-0.5,0.8-0.7,1.5-0.5,2s0.7,1,1.6,1.4l0.2,0.1v0.2c0.1,0.9,0.3,1.6,0.8,1.9
					c0.5,0.3,1.2,0.4,2.1,0.2L53.8,52.3z"/>
			</g>
			<g>
				<path class="st5" d="M55.7,49.6c-1.8,0-3.3-1.5-3.3-3.3s1.5-3.3,3.3-3.3s3.3,1.5,3.3,3.3S57.5,49.6,55.7,49.6z M55.7,43.8
					c-1.4,0-2.5,1.1-2.5,2.5s1.1,2.5,2.5,2.5s2.5-1.1,2.5-2.5S57.1,43.8,55.7,43.8z"/>
			</g>
		</g>
	</g>
	<g>
		<g>
			<g>
				<g id="XMLID_38_">
					<rect x="14.6" y="46.9" class="st0" width="12.8" height="0.8"/>
				</g>
				<g id="XMLID_37_">
					<rect x="21.2" y="42.3" class="st0" width="21.7" height="0.8"/>
				</g>
				<g id="XMLID_36_">
					<rect x="34.1" y="38.1" class="st0" width="12.4" height="0.8"/>
				</g>
				<g id="XMLID_35_" class="st3">
					<rect x="14.6" y="34.2" class="st0" width="28.3" height="0.8"/>
				</g>
				<g id="XMLID_34_" class="st3">
					<rect x="11.4" y="29.6" class="st0" width="4.9" height="0.8"/>
				</g>
				<g id="XMLID_33_">
					<rect x="25.1" y="25.5" class="st0" width="26.9" height="0.8"/>
				</g>
				<g id="XMLID_27_" class="st3">
					<rect x="23" y="21.2" class="st0" width="23.6" height="0.8"/>
				</g>
				<g id="XMLID_26_">
					<rect x="16.4" y="16.6" class="st0" width="26.5" height="0.8"/>
				</g>
				<g id="XMLID_25_">
					<rect x="34.1" y="12.5" class="st0" width="15.4" height="0.8"/>
				</g>
			</g>
		</g>
	</g>
</g>
</svg>
