<?xml version="1.0" encoding="utf-8"?>
<!-- Generator: Adobe Illustrator 22.1.0, SVG Export Plug-In . SVG Version: 6.00 Build 0)  -->
<svg version="1.1" id="Layer_1" xmlns="http://www.w3.org/2000/svg" xmlns:xlink="http://www.w3.org/1999/xlink" x="0px" y="0px"
	 viewBox="0 0 65 65" style="enable-background:new 0 0 65 65;" xml:space="preserve">
<style type="text/css">
	.st0{fill:#FFFFFF;}
	.st1{clip-path:url(#SVGID_2_);}
	.st2{opacity:0.3;}
	.st3{opacity:0.6;}
	.st4{opacity:0.8;}
	.st5{fill:#F2E70A;}
</style>
<g>
	<g>
		<path id="SVGID_5_" class="st0" d="M-1110.3-111.9h-32.3c-2.2,0-4,1.8-4,4v36.3l8.1-8.1h28.2c2.2,0,4-1.8,4-4v-24.2
			C-1106.3-110.1-1108.1-111.9-1110.3-111.9z"/>
	</g>
	<g>
		<defs>
			<path id="SVGID_1_" d="M-1110.3-111.9h-32.3c-2.2,0-4,1.8-4,4v36.3l8.1-8.1h28.2c2.2,0,4-1.8,4-4v-24.2
				C-1106.3-110.1-1108.1-111.9-1110.3-111.9z"/>
		</defs>
		<clipPath id="SVGID_2_">
			<use xlink:href="#SVGID_1_"  style="overflow:visible;"/>
		</clipPath>
		<g class="st1">
			<g>
				<rect id="SVGID_7_" x="-1398.1" y="-2199.5" class="st0" width="1750" height="3678"/>
			</g>
		</g>
	</g>
</g>
<g>
	<g>
		<defs>
			<polygon id="SVGID_3_" points="-1124,-107.1 -1121.3,-104.3 -1127.1,-98.1 -1131.8,-103.1 -1140.6,-93.8 -1139,-92 
				-1131.8,-99.6 -1127.1,-94.5 -1119.6,-102.5 -1116.8,-99.6 -1116.8,-107.1 			"/>
		</defs>
		<clipPath id="SVGID_4_">
			<use xlink:href="#SVGID_3_"  style="overflow:visible;"/>
		</clipPath>
	</g>
</g>
<g class="st2">
	<g>
		<rect x="26.4" y="21.6" class="st0" width="10.4" height="35.8"/>
	</g>
	<g>
		<rect x="26.4" y="14.8" class="st0" width="10.4" height="2.6"/>
	</g>
	<g>
		<rect x="26.4" y="18.1" class="st0" width="10.4" height="2.9"/>
	</g>
</g>
<g class="st2">
	<g>
		<rect x="45.2" y="21.6" class="st0" width="10.4" height="35.8"/>
	</g>
	<g>
		<rect x="45.2" y="14.8" class="st0" width="10.4" height="2.6"/>
	</g>
	<g>
		<rect x="45.2" y="18.1" class="st0" width="10.4" height="2.9"/>
	</g>
</g>
<g class="st3">
	<path class="st0" d="M16.7,56.3L9,55l1.3-7.5l7.7,1.3L16.7,56.3z M9.8,54.4l6.2,1.1l1-6l-6.2-1.1L9.8,54.4z"/>
</g>
<g class="st3">
	<path class="st0" d="M19.1,42.2l-7.7-1.3l2.3-13.2l7.7,1.3L19.1,42.2z M12.3,40.3l6.2,1.1l2-11.7l-6.2-1.1L12.3,40.3z"/>
</g>
<g class="st3">
	<path class="st0" d="M23.9,14.1l-7.7-1.3l1-5.7l7.7,1.3L23.9,14.1z M17.1,12.2l6.2,1.1L24,9.1L17.8,8L17.1,12.2z"/>
</g>
<g class="st4">
	<path class="st0" d="M21.4,29.1l-7.7-1.3l2.6-15.1L24,14L21.4,29.1z M14.5,27.2l6.2,1.1L23,14.7l-6.2-1.1L14.5,27.2z"/>
</g>
<g>
	<path class="st0" d="M18,48.9l-7.7-1.3l1.2-6.7l7.7,1.3L18,48.9z M11.1,46.9l6.2,1.1l0.9-5.2L12,41.7L11.1,46.9z"/>
</g>
<g class="st3">
	<path class="st0" d="M53.8,56.3H43.3V24.9h10.5V56.3z M44.1,55.5h9V25.6h-9V55.5z"/>
</g>
<g class="st3">
	<path class="st0" d="M53.8,18.3H43.3v-7.1h10.5V18.3z M44.1,17.5h9v-5.6h-9V17.5z"/>
</g>
<g class="st4">
	<path class="st0" d="M53.8,25H43.3v-6.8h10.5V25z M44.1,24.2h9v-5.3h-9V24.2z"/>
</g>
<g class="st3">
	<path class="st0" d="M43.5,13.4h-7.8V7.8h7.8V13.4z M36.4,12.7h6.3V8.5h-6.3V12.7z"/>
</g>
<g class="st3">
	<path class="st0" d="M43.5,41.6h-7.8V29h7.8V41.6z M36.4,40.9h6.3V29.7h-6.3V40.9z"/>
</g>
<g class="st3">
	<path class="st0" d="M43.5,56.3h-7.8v-8h7.8V56.3z M36.4,55.6h6.3v-6.5h-6.3V55.6z"/>
</g>
<g class="st4">
	<path class="st0" d="M43.5,29h-7.8V13.3h7.8V29z M36.4,28.3h6.3V14.1h-6.3V28.3z"/>
</g>
<g>
	<path class="st0" d="M43.5,48.4h-7.8v-6.9h7.8V48.4z M36.4,47.7h6.3v-5.4h-6.3V47.7z"/>
</g>
<g class="st3">
	<path class="st0" d="M35.7,56.3H24.6V19.8h11.2L35.7,56.3L35.7,56.3z M25.3,55.6H35v-35h-9.7V55.6z"/>
</g>
<g class="st3">
	<path class="st0" d="M35.7,16.3H24.6V13h11.2L35.7,16.3L35.7,16.3z M25.3,15.6H35v-1.9h-9.7V15.6z"/>
</g>
<g>
	<path class="st5" d="M35.7,19.9H24.6v-3.6h11.2L35.7,19.9L35.7,19.9z M25.3,19.1H35V17h-9.7V19.1z"/>
</g>
<g id="XMLID_42_" class="st3">
	<rect x="28.9" y="24.1" class="st0" width="0.8" height="27.5"/>
</g>
<g id="XMLID_41_" class="st3">
	<rect x="30.9" y="24.1" class="st0" width="0.8" height="11.3"/>
</g>
</svg>
