<?xml version="1.0" encoding="utf-8"?>
<!-- Generator: Adobe Illustrator 22.1.0, SVG Export Plug-In . SVG Version: 6.00 Build 0)  -->
<svg version="1.1" id="Layer_1" xmlns="http://www.w3.org/2000/svg" xmlns:xlink="http://www.w3.org/1999/xlink" x="0px" y="0px"
	 viewBox="0 0 400 294" style="enable-background:new 0 0 400 294;" xml:space="preserve">
<style type="text/css">
	.st0{opacity:0.3;fill:#FFFFFF;enable-background:new    ;}
	.st1{fill:#FDB835;}
	.st2{fill:none;stroke:#F48022;stroke-width:3.2445;stroke-miterlimit:10;}
	.st3{fill:none;}
	.st4{opacity:0.6;fill:none;stroke:#FFFFFF;stroke-width:3.3236;stroke-miterlimit:10;enable-background:new    ;}
	.st5{opacity:0.6;fill:none;stroke:#FFFFFF;stroke-width:3.2445;stroke-miterlimit:10;enable-background:new    ;}
	.st6{fill:url(#SVGID_1_);}
</style>
<path class="st0" d="M149.4,116.9v6.3c0,4.3,3.1,8.1,7.4,8.5c4.8,0.4,8.8-3.4,8.8-8.1v-6.7C165.5,116.7,149.4,116.9,149.4,116.9z"/>
<path class="st0" d="M248.8,99.7l4.1,4.7c2.8,3.2,7.7,4.1,11.2,1.5c3.9-2.9,4.4-8.3,1.3-11.9l-4.4-5C260.7,89,248.8,99.7,248.8,99.7
	z"/>
<path class="st0" d="M178.6,52v-4c0-8.7,6.6-16.3,15.2-16.8c9.4-0.6,17.2,6.9,17.2,16.2V52C211.2,52,178.6,52,178.6,52z"/>
<rect x="177" y="81.2" class="st0" width="32.4" height="8.1"/>
<polygon class="st1" points="295.4,42.2 295.4,35.7 258.1,35.7 258.1,74.7 295.4,74.7 295.4,81.2 313.3,81.2 313.3,42.2 "/>
<polygon class="st2" points="290.6,37.4 290.6,30.9 253.3,30.9 253.3,69.8 290.6,69.8 290.6,76.3 308.4,76.3 308.4,37.4 "/>
<line class="st3" x1="295.4" y1="42.2" x2="295.4" y2="76.3"/>
<path class="st4" d="M253.7,87.6l-11.9,11.9 M216,76.5l33.7,30.9c3.3,3.3,8.6,3.3,11.9,0c3.3-3.3,3.3-8.6,0-11.9l-23.7-23.7
	c-5.3-5.3-11.4-12.3-18.6-12.3 M253.3,19.5v68.1 M253.3,110.4v83.4 M162.4,105.5h56.8 M196.5,141.2h22.7 M162.4,141.2h22.7
	 M219.2,188.2h-22.7V183c0-5.4,3.6-10.2,8.8-11.4c7.4-1.6,13.9,3.9,13.9,11V188.2z M185.1,188.2h-22.7V183c0-5.3,3.6-10.2,8.8-11.3
	c7.4-1.6,13.9,3.9,13.9,10.9V188.2z M146.2,112h16.2 M162.4,60.8L162.4,60.8c-9,0-16.2,7.3-16.2,16.2v42.8c0,4.3,3.1,8.1,7.4,8.5
	c4.8,0.4,8.8-3.4,8.8-8.1v-44 M162.4,76.3v45.4v66.5h22.7v-66.5h11.4v66.5h22.7v-66.5V79.5 M162.4,58.5V43.6
	c0-16.3,13.7-29.8,29.9-28.4c14.1,1.2,25.2,13,25.2,27.5v15.8C217.6,58.3,162.4,58.5,162.4,58.5z M204.6,86h-32.4v-8.1h32.4V86z"/>
<line class="st2" x1="290.6" y1="37.4" x2="290.6" y2="71.4"/>
<path class="st5" d="M173.8,47.1v-4c0-8.7,6.6-16.3,15.2-16.8c9.4-0.6,17.2,6.9,17.2,16.2v4.6C206.3,47.1,173.8,47.1,173.8,47.1z"/>
<circle class="st5" cx="200" cy="554.4" r="364.6"/>
<circle class="st5" cx="141.4" cy="216.6" r="4.8"/>
<circle class="st5" cx="233.3" cy="225.1" r="8.5"/>
<circle class="st0" cx="237.3" cy="228.1" r="8.5"/>
<circle class="st5" cx="57.2" cy="254.8" r="11.2"/>
<ellipse transform="matrix(4.531447e-02 -0.999 0.999 4.531447e-02 -198.7708 309.6083)" class="st0" cx="62.6" cy="258.8" rx="11.2" ry="11.2"/>
<circle class="st5" cx="315.7" cy="272.3" r="6.2"/>
<linearGradient id="SVGID_1_" gradientUnits="userSpaceOnUse" x1="200" y1="294" x2="200" y2="86">
	<stop  offset="0" style="stop-color:#1E3C52"/>
	<stop  offset="1" style="stop-color:#1E3C52;stop-opacity:0"/>
</linearGradient>
<rect y="86" class="st6" width="400" height="208"/>
</svg>
